<svg xmlns="http://www.w3.org/2000/svg" xmlns:xlink="http://www.w3.org/1999/xlink" id="exportSvg" width="652" height="456"><defs/><rect width="652" height="456" transform="translate(0, 0)" fill="rgb(255, 255, 255)" style="fill: rgb(255, 255, 255);"/><g><g id="__svelte-dw-svg" clip-path="url(#rect-mask-VOit459XqzYpcpCvgxkcq)"><clipPath id="rect-mask-VOit459XqzYpcpCvgxkcq"><rect x="0" y="0" width="652" height="456"/></clipPath><text transform="translate(0, 0)"><tspan fill="rgb(0,0,0)" x="0" y="22" style="font-family: Roboto; font-weight: 700; font-stretch: 100%; font-size: 22px;">[ Insert title here ]</tspan></text><g id="chart-svg"><g id="svg-main-svg" clip-path="url(#rect-mask-Lx4yakiups7vWJYrSxwUt)" transform="translate(0, 35)"><clipPath id="rect-mask-Lx4yakiups7vWJYrSxwUt"><rect x="0" y="0" width="652" height="369"/></clipPath><g id="group-svg" transform="translate(0, 6)"><g id="x-grid-svg"/><g id="y-grid-svg"/><g id="lines-svg"><g id="Cash-svg"><path d="M58.90625000141226,39.76470588235295C89.63931341382609,39.76470588235295,120.37237682623993,39.76470588235295,151.10544023865376,39.76470588235295C181.75453353245442,39.76470588235295,212.4036268262551,139.17647058823528,243.05272012005577,139.17647058823528C273.7018134138564,139.17647058823528,304.35090670765715,139.17647058823528,335.0000000014578,139.17647058823528C365.64909329525847,139.17647058823528,396.2981865890592,278.35294117647055,426.94727988285985,278.35294117647055C457.68034329527364,278.35294117647055,488.4134067076875,258.4705882352941,519.1464701201013,258.4705882352941C549.795563413902,258.4705882352941,580.4446567077027,278.35294117647055,611.0937500015034,298.2352941176471" stroke="rgb(55,154,112)" id="Cash" style="fill: none; stroke-width: 3; stroke-linejoin: round; stroke-linecap: round; stroke: rgb(55, 154, 112);"/></g></g><g id="line-symbols-svg"/><g id="x-grid-svg"><g id="x-tick-labels-svg date-axis-svg grid-x-svg datawrapper-W64fH-63wp0p-svg" transform="translate(0, 348)"><text transform="translate(58.90625, 12) translate(-13.60742, 0) translate(13.607421875, 0)" style="text-anchor: middle;"><tspan fill="rgb(116, 116, 116)" style="font-family: Roboto; font-weight: 400; font-stretch: 100%; font-size: 12px;" x="0" dominant-baseline="auto" y="0">2016</tspan></text><text transform="translate(151.10544, 12) translate(-13.60742, 0) translate(13.607421875, 0)" style="text-anchor: middle;"><tspan fill="rgb(116, 116, 116)" style="font-family: Roboto; font-weight: 400; font-stretch: 100%; font-size: 12px;" x="0" dominant-baseline="auto" y="0">2017</tspan></text><text transform="translate(243.05272, 12) translate(-13.60743, 0) translate(13.607429504394531, 0)" style="text-anchor: middle;"><tspan fill="rgb(116, 116, 116)" style="font-family: Roboto; font-weight: 400; font-stretch: 100%; font-size: 12px;" x="0" dominant-baseline="auto" y="0">2018</tspan></text><text transform="translate(335, 12) translate(-13.47656, 0) translate(13.4765625, 0)" style="text-anchor: middle;"><tspan fill="rgb(116, 116, 116)" style="font-family: Roboto; font-weight: 400; font-stretch: 100%; font-size: 12px;" x="0" dominant-baseline="auto" y="0">2019</tspan></text><text transform="translate(426.94728, 12) translate(-13.60742, 0) translate(13.607421875, 0)" style="text-anchor: middle;"><tspan fill="rgb(116, 116, 116)" style="font-family: Roboto; font-weight: 400; font-stretch: 100%; font-size: 12px;" x="0" dominant-baseline="auto" y="0">2020</tspan></text><text transform="translate(519.14647, 12) translate(-13.47656, 0) translate(13.4765625, 0)" style="text-anchor: middle;"><tspan fill="rgb(116, 116, 116)" style="font-family: Roboto; font-weight: 400; font-stretch: 100%; font-size: 12px;" x="0" dominant-baseline="auto" y="0">2021</tspan></text><text transform="translate(611.09375, 12) translate(-13.60742, 0) translate(13.607421875, 0)" style="text-anchor: middle;"><tspan fill="rgb(116, 116, 116)" style="font-family: Roboto; font-weight: 400; font-stretch: 100%; font-size: 12px;" x="0" dominant-baseline="auto" y="0">2022</tspan></text></g><g id="x-tick-lines-svg grid-x-svg datawrapper-W64fH-1jidnk8-svg" transform="translate(0, 338)"><line x1="0" x2="0" y1="5" y2="0" transform="translate(58.90625, 0)" style="fill: none; stroke-width: 1; stroke-linejoin: miter; stroke-linecap: butt; stroke: rgb(24, 24, 24);"/><line x1="0" x2="0" y1="5" y2="0" transform="translate(151.10544, 0)" style="fill: none; stroke-width: 1; stroke-linejoin: miter; stroke-linecap: butt; stroke: rgb(24, 24, 24);"/><line x1="0" x2="0" y1="5" y2="0" transform="translate(243.05272, 0)" style="fill: none; stroke-width: 1; stroke-linejoin: miter; stroke-linecap: butt; stroke: rgb(24, 24, 24);"/><line x1="0" x2="0" y1="5" y2="0" transform="translate(335, 0)" style="fill: none; stroke-width: 1; stroke-linejoin: miter; stroke-linecap: butt; stroke: rgb(24, 24, 24);"/><line x1="0" x2="0" y1="5" y2="0" transform="translate(426.94728, 0)" style="fill: none; stroke-width: 1; stroke-linejoin: miter; stroke-linecap: butt; stroke: rgb(24, 24, 24);"/><line x1="0" x2="0" y1="5" y2="0" transform="translate(519.14647, 0)" style="fill: none; stroke-width: 1; stroke-linejoin: miter; stroke-linecap: butt; stroke: rgb(24, 24, 24);"/><line x1="0" x2="0" y1="5" y2="0" transform="translate(611.09375, 0)" style="fill: none; stroke-width: 1; stroke-linejoin: miter; stroke-linecap: butt; stroke: rgb(24, 24, 24);"/></g></g><g id="y-grid-svg"><g id="y-tick-labels-svg number-axis-svg grid-y-svg datawrapper-W64fH-5tsm27-svg"><text transform="translate(0, 333) translate(0, 0)"><tspan fill="rgb(162, 162, 162)" style="font-family: Roboto; font-weight: 400; font-stretch: 100%; font-size: 12px;" x="0" dominant-baseline="auto" y="0">16</tspan></text><text transform="translate(0, 293.23529) translate(0, 0)"><tspan fill="rgb(162, 162, 162)" style="font-family: Roboto; font-weight: 400; font-stretch: 100%; font-size: 12px;" x="0" dominant-baseline="auto" y="0">18</tspan></text><text transform="translate(0, 253.47059) translate(0, 0)"><tspan fill="rgb(162, 162, 162)" style="font-family: Roboto; font-weight: 400; font-stretch: 100%; font-size: 12px;" x="0" dominant-baseline="auto" y="0">20</tspan></text><text transform="translate(0, 213.70588) translate(0, 0)"><tspan fill="rgb(162, 162, 162)" style="font-family: Roboto; font-weight: 400; font-stretch: 100%; font-size: 12px;" x="0" dominant-baseline="auto" y="0">22</tspan></text><text transform="translate(0, 173.94118) translate(0, 0)"><tspan fill="rgb(162, 162, 162)" style="font-family: Roboto; font-weight: 400; font-stretch: 100%; font-size: 12px;" x="0" dominant-baseline="auto" y="0">24</tspan></text><text transform="translate(0, 134.17647) translate(0, 0)"><tspan fill="rgb(162, 162, 162)" style="font-family: Roboto; font-weight: 400; font-stretch: 100%; font-size: 12px;" x="0" dominant-baseline="auto" y="0">26</tspan></text><text transform="translate(0, 94.41176) translate(0, 0)"><tspan fill="rgb(162, 162, 162)" style="font-family: Roboto; font-weight: 400; font-stretch: 100%; font-size: 12px;" x="0" dominant-baseline="auto" y="0">28</tspan></text><text transform="translate(0, 54.64706) translate(0, 0)"><tspan fill="rgb(162, 162, 162)" style="font-family: Roboto; font-weight: 400; font-stretch: 100%; font-size: 12px;" x="0" dominant-baseline="auto" y="0">30</tspan></text><text transform="translate(0, 14.88235) translate(0, 0)"><tspan fill="rgb(162, 162, 162)" style="font-family: Roboto; font-weight: 400; font-stretch: 100%; font-size: 12px;" x="0" dominant-baseline="auto" y="0">32%</tspan></text></g><g id="y-tick-lines-svg grid-y-svg datawrapper-W64fH-1jidnk8-svg"><line x1="0" x2="-20" y1="0" y2="0" transform="translate(20, 19.88235)" style="fill: none; stroke-width: 1; stroke-linejoin: miter; stroke-linecap: butt; stroke: rgb(24, 24, 24);"/><line x1="0" x2="-20" y1="0" y2="0" transform="translate(20, 59.64706)" style="fill: none; stroke-width: 1; stroke-linejoin: miter; stroke-linecap: butt; stroke: rgb(24, 24, 24);"/><line x1="0" x2="-20" y1="0" y2="0" transform="translate(20, 99.41176)" style="fill: none; stroke-width: 1; stroke-linejoin: miter; stroke-linecap: butt; stroke: rgb(24, 24, 24);"/><line x1="0" x2="-20" y1="0" y2="0" transform="translate(20, 139.17647)" style="fill: none; stroke-width: 1; stroke-linejoin: miter; stroke-linecap: butt; stroke: rgb(24, 24, 24);"/><line x1="0" x2="-20" y1="0" y2="0" transform="translate(20, 178.94118)" style="fill: none; stroke-width: 1; stroke-linejoin: miter; stroke-linecap: butt; stroke: rgb(24, 24, 24);"/><line x1="0" x2="-20" y1="0" y2="0" transform="translate(20, 218.70588)" style="fill: none; stroke-width: 1; stroke-linejoin: miter; stroke-linecap: butt; stroke: rgb(24, 24, 24);"/><line x1="0" x2="-20" y1="0" y2="0" transform="translate(20, 258.47059)" style="fill: none; stroke-width: 1; stroke-linejoin: miter; stroke-linecap: butt; stroke: rgb(24, 24, 24);"/><line x1="0" x2="-20" y1="0" y2="0" transform="translate(20, 298.23529)" style="fill: none; stroke-width: 1; stroke-linejoin: miter; stroke-linecap: butt; stroke: rgb(24, 24, 24);"/><line x1="0" x2="-20" y1="0" y2="0" transform="translate(20, 338)" style="fill: none; stroke-width: 1; stroke-linejoin: miter; stroke-linecap: butt; stroke: rgb(24, 24, 24);"/></g></g></g></g><text transform="translate(620, 334.234375)" id="Cash"><tspan fill="rgb(31,135,95)" x="0" y="12" style="font-family: Roboto; font-weight: 400; font-stretch: 100%; font-size: 12px;">18%</tspan></text><line x1="426" x2="426" y1="41" y2="379" style="fill: none; stroke-width: 2; stroke-dasharray: 8, 4; stroke: rgba(94, 94, 94, 0.1);"/><text transform="translate(439, 152)"><tspan fill="rgb(24,24,24)" x="0" y="14" style="font-family: Roboto; font-weight: 400; font-stretch: 100%; font-size: 14px;">Cash payments have fallen </tspan><tspan fill="rgb(24,24,24)" x="0" y="30.796875" style="font-family: Roboto; font-weight: 400; font-stretch: 100%; font-size: 14px;">by more than a third since </tspan><tspan fill="rgb(24,24,24)" x="0" y="47.59375" style="font-family: Roboto; font-weight: 400; font-stretch: 100%; font-size: 14px;">2016</tspan></text><g id="tooltip-layer-svg" clip-path="url(#rect-mask-OoDqNZ7hoRO8pNtMm8eov)" transform="translate(0, 35)"><clipPath id="rect-mask-OoDqNZ7hoRO8pNtMm8eov"><rect x="0" y="0" width="652" height="369"/></clipPath><g id="group-svg" transform="translate(0, 6)"/></g></g><text transform="translate(0, 424)"><tspan fill="rgb(101,101,101)" x="0" y="12" style="font-family: Roboto; font-weight: 400; font-stretch: 100%; font-style: italic; font-size: 12px;">Cash payments as a percentage of all payments.</tspan><tspan fill="rgb(136,136,136)" x="0" y="30" style="font-family: Roboto; font-weight: 400; font-stretch: 100%; font-size: 11px;">Source:</tspan><tspan fill="rgb(136,136,136)" dx="2.734375" style="font-family: Roboto; font-weight: 400; font-stretch: 100%; font-size: 11px;">US Federal Reserve</tspan><tspan fill="rgb(136,136,136)" dx="2.739" style="font-family: Roboto; font-weight: 400; font-stretch: 100%; font-size: 11px;">•</tspan><tspan fill="rgb(136,136,136)" dx="2.739" style="font-family: Roboto; font-weight: 400; font-stretch: 100%; font-size: 11px;">Created with</tspan><tspan fill="rgb(136,136,136)" dx="2.734375" style="font-family: Roboto; font-weight: 400; font-stretch: 100%; font-size: 11px;">Datawrapper</tspan></text></g></g></svg>