<?xml version="1.0" encoding="utf-8"?>
<!-- Generator: Adobe Illustrator 28.2.0, SVG Export Plug-In . SVG Version: 6.00 Build 0)  -->
<svg version="1.1" id="exportSvg" xmlns="http://www.w3.org/2000/svg" xmlns:xlink="http://www.w3.org/1999/xlink" x="0px" y="0px"
	 viewBox="0 0 650 600" style="enable-background:new 0 0 650 600;" xml:space="preserve">
<style type="text/css">
	.st0{fill:#8C3000;}
	.st1{fill:#AF4E00;}
	.st2{fill:#D46C00;}
	.st3{fill:#FA8C00;}
	.st4{fill:#FFAD33;}
	.st5{fill:#FFCE56;}
	.st6{fill:#A2A2A2;}
	.st7{font-family:'Roboto-Regular';}
	.st8{font-size:14px;}
	.st9{fill:#747474;}
	.st10{fill:#181818;}
	.st11{fill:#656565;}
	.st12{fill:#888888;}
	.st13{fill:none;stroke:#000000;stroke-width:0.75;stroke-miterlimit:10;}
	.st14{enable-background:new    ;}
</style>
<rect id="Cent-0" x="532.4" y="351.7" class="st0" width="35.2" height="161.1"/>
<rect id="_x35__Cent-1" x="532.4" y="326.7" class="st1" width="35.2" height="25"/>
<rect id="_x31_0_Cent-2" x="532.4" y="277.5" class="st2" width="35.2" height="49.2"/>
<rect id="_x32_5_Cent-3" x="532.4" y="239.7" class="st3" width="35.2" height="37.8"/>
<rect id="_x35_0_xA0__Cent-4" x="532.4" y="239.7" class="st4" width="35.2" height="0.1"/>
<polygon id="N.A.__x24_1-5" class="st5" points="532.4,239.7 567.7,239.7 567.7,239.7 "/>
<rect id="Cent-0_00000079474416690282914280000005785128796282438272_" x="470.6" y="367.3" class="st0" width="35.2" height="145.5"/>
<rect id="_x35__Cent-1_00000048486812229193453420000009352489258605452705_" x="470.6" y="331.9" class="st1" width="35.2" height="35.4"/>
<rect id="_x31_0_Cent-2_00000101087124894530075930000003202136018081606315_" x="470.6" y="260.2" class="st2" width="35.2" height="71.7"/>
<rect id="_x32_5_Cent-3_00000144335092110993511100000002736070291717943195_" x="470.6" y="201.5" class="st3" width="35.2" height="58.7"/>
<rect id="_x35_0_xA0__Cent-4_00000082361888214516454750000002482124867934206597_" x="470.6" y="201.3" class="st4" width="35.2" height="0.2"/>
<polygon id="N.A.__x24_1-5_00000021093814875036421200000003752173657685344694_" class="st5" points="470.6,201.3 505.9,201.3 
	505.9,201.3 "/>
<rect id="Cent-0_00000134220500242726986210000009336647575718937503_" x="408.8" y="331.9" class="st0" width="35.2" height="180.9"/>
<rect id="_x35__Cent-1_00000142135740763712749390000000562728579003756968_" x="408.8" y="295.9" class="st1" width="35.2" height="35.9"/>
<rect id="_x31_0_Cent-2_00000031927682085494017590000016269554487062558133_" x="408.8" y="231.2" class="st2" width="35.2" height="64.7"/>
<rect id="_x32_5_Cent-3_00000013897784946943409170000002376162584671438526_" x="408.8" y="181.6" class="st3" width="35.2" height="49.6"/>
<rect id="_x35_0_xA0__Cent-4_00000028289041171028853750000017969603897453554576_" x="408.8" y="181.3" class="st4" width="35.2" height="0.3"/>
<polygon id="N.A.__x24_1-5_00000028302632413673387490000017594934392267559826_" class="st5" points="408.8,181.3 444.1,181.3 
	444.1,181.3 "/>
<rect id="Cent-0_00000155126373006011754530000004342495461960773296_" x="346.9" y="339" class="st0" width="35.2" height="173.8"/>
<rect id="_x35__Cent-1_00000103946902743999142570000004705811137865255571_" x="346.9" y="301.9" class="st1" width="35.2" height="37.1"/>
<rect id="_x31_0_Cent-2_00000149348022012209561660000005969563986415843259_" x="346.9" y="238.3" class="st2" width="35.2" height="63.6"/>
<rect id="_x32_5_Cent-3_00000015314133451132449480000002759928407584425870_" x="346.9" y="175" class="st3" width="35.2" height="63.3"/>
<rect id="_x35_0_xA0__Cent-4_00000033357045451541079810000014307369419522923410_" x="346.9" y="174.9" class="st4" width="35.2" height="0.1"/>
<polygon id="N.A.__x24_1-5_00000067915585376867708470000001814735721716431021_" class="st5" points="346.9,174.9 382.1,174.9 
	382.1,174.9 "/>
<rect id="Cent-0_00000121989037557838483820000010944828421890914724_" x="285.1" y="351.7" class="st0" width="35.2" height="161.1"/>
<rect id="_x35__Cent-1_00000092436787526569487430000000365529270778196139_" x="285.1" y="326.7" class="st1" width="35.2" height="25"/>
<rect id="_x31_0_Cent-2_00000147912433296572587910000017377916723384530102_" x="285.1" y="277.5" class="st2" width="35.2" height="49.2"/>
<rect id="_x32_5_Cent-3_00000084510905197046672510000010551650284522159005_" x="285.1" y="239.7" class="st3" width="35.2" height="37.8"/>
<rect id="_x35_0_xA0__Cent-4_00000102531004012351466070000002855726508042119851_" x="285.1" y="239.7" class="st4" width="35.2" height="0.1"/>
<polygon id="N.A.__x24_1-5_00000018956311065820361100000005106438733190182027_" class="st5" points="285.1,239.7 320.3,239.7 
	320.3,239.7 "/>
<rect id="Cent-0_00000095327674423154084280000013470081525884250755_" x="223.3" y="334.3" class="st0" width="35.2" height="178.5"/>
<rect id="_x35__Cent-1_00000066490192191277972630000002018713202765029525_" x="223.3" y="305.5" class="st1" width="35.2" height="28.7"/>
<rect id="_x31_0_Cent-2_00000047033212571607070290000003136690099588951226_" x="223.3" y="255.2" class="st2" width="35.2" height="50.3"/>
<rect id="_x32_5_Cent-3_00000067947562947663562110000009497309591108109720_" x="223.3" y="212.8" class="st3" width="35.2" height="42.4"/>
<rect id="_x35_0_xA0__Cent-4_00000176017689734114481590000001408143155511667353_" x="223.3" y="212.6" class="st4" width="35.2" height="0.2"/>
<polygon id="N.A.__x24_1-5_00000047050192040465715580000007177762390449921982_" class="st5" points="223.3,212.6 258.5,212.6 
	258.5,212.6 "/>
<rect id="Cent-0_00000061472291479458277810000005081973259091138483_" x="161.5" y="315.3" class="st0" width="35.2" height="197.5"/>
<rect id="_x35__Cent-1_00000132799502260707512470000017896946517941938823_" x="161.5" y="283.9" class="st1" width="35.2" height="31.4"/>
<rect id="_x31_0_Cent-2_00000096751538212497832280000011518531759325990077_" x="161.5" y="221.5" class="st2" width="35.2" height="62.4"/>
<rect id="_x32_5_Cent-3_00000092427498958011658420000002943479517501228684_" x="161.5" y="173" class="st3" width="35.2" height="48.4"/>
<rect id="_x35_0_xA0__Cent-4_00000008114021900578731520000004280212355890684052_" x="161.5" y="172.9" class="st4" width="35.2" height="0.1"/>
<polygon id="N.A.__x24_1-5_00000101105228893825320950000013377358923242212777_" class="st5" points="161.5,172.9 196.7,172.9 
	196.7,172.9 "/>
<rect id="Cent-0_00000062181732162239631020000011477886402268358066_" x="99.5" y="304.2" class="st0" width="35.2" height="208.6"/>
<rect id="_x35__Cent-1_00000147930725869855038560000010314603949308189114_" x="99.5" y="268.8" class="st1" width="35.2" height="35.4"/>
<rect id="_x31_0_Cent-2_00000149376538854327490280000016097568956101923503_" x="99.5" y="201.2" class="st2" width="35.2" height="67.6"/>
<rect id="_x32_5_Cent-3_00000118356370348806725920000000745534626258701215_" x="99.5" y="147.3" class="st3" width="35.2" height="53.9"/>
<rect id="_x35_0_xA0__Cent-4_00000129165006489802819910000004757892237419127223_" x="99.5" y="147.2" class="st4" width="35.2" height="0.1"/>
<polygon id="N.A.__x24_1-5_00000077299044425523369490000015464155262019738035_" class="st5" points="99.5,147.2 134.8,147.2 
	134.8,147.2 "/>
<rect id="Cent-0_00000027571167688268251400000013239417328208668853_" x="37.7" y="298.5" class="st0" width="35.2" height="214.2"/>
<rect id="_x35__Cent-1_00000161620755629233197890000007247781634234566547_" x="37.7" y="262" class="st1" width="35.2" height="36.6"/>
<rect id="_x31_0_Cent-2_00000152236415230874752260000016378692732437066643_" x="37.7" y="192.4" class="st2" width="35.2" height="69.6"/>
<rect id="_x32_5_Cent-3_00000071560572662283053520000004814423493797921703_" x="37.7" y="124" class="st3" width="35.2" height="68.4"/>
<rect id="_x35_0_xA0__Cent-4_00000068667533363560947140000006351048802038865598_" x="37.7" y="123.9" class="st4" width="35.2" height="0.1"/>
<polygon id="N.A.__x24_1-5_00000065049813440033011380000015523123867331489705_" class="st5" points="37.7,123.9 73,123.9 
	73,123.9 "/>
<text transform="matrix(1 0 0 1 582.5483 402.4134)" class="st6 st7 st8">5,000</text>
<text transform="matrix(1 0 0 1 582.5483 288.0296)" class="st6 st7 st8">10,000</text>
<text transform="matrix(1 0 0 1 582.5483 173.646)" class="st6 st7 st8">15,000</text>
<text transform="matrix(1 0 0 1 41.8649 529.797)" class="st9 st7 st8">2015</text>
<text transform="matrix(1 0 0 1 103.6629 529.797)" class="st9 st7 st8">2016</text>
<text transform="matrix(1 0 0 1 165.6302 529.797)" class="st9 st7 st8">2017</text>
<text transform="matrix(1 0 0 1 227.4281 529.797)" class="st9 st7 st8">2018</text>
<text transform="matrix(1 0 0 1 289.2261 529.797)" class="st9 st7 st8">2019</text>
<text transform="matrix(1 0 0 1 351.024 529.797)" class="st9 st7 st8">2020</text>
<text transform="matrix(1 0 0 1 412.9913 529.797)" class="st9 st7 st8">2021</text>
<text transform="matrix(1 0 0 1 474.7892 529.797)" class="st9 st7 st8">2022</text>
<text transform="matrix(1 0 0 1 536.5872 529.797)" class="st9 st7 st8">2023</text>
<text transform="matrix(1 0 0 1 61.8569 73.2189)" class="st10 st7 st8">Cent</text>
<text transform="matrix(1 0 0 1 113.5757 73.2189)" class="st10 st7 st8">5</text>
<text transform="matrix(1 0 0 1 123.2983 73.2189)" class="st10 st7 st8">Cent</text>
<text transform="matrix(1 0 0 1 175.0132 73.2189)" class="st10 st7 st8">10</text>
<text transform="matrix(1 0 0 1 191.4741 73.2189)" class="st10 st7 st8"> Cent</text>
<text transform="matrix(1 0 0 1 243.1851 73.2189)" class="st10 st7 st8">25</text>
<text transform="matrix(1 0 0 1 259.646 73.2189)" class="st10 st7 st8"> Cent</text>
<text transform="matrix(1 0 0 1 311.3569 73.2189)" class="st10 st7 st8">50 </text>
<text transform="matrix(1 0 0 1 330.7886 73.2189)" class="st10 st7 st8">Cent</text>
<rect x="44.9" y="61.6" class="st0" width="14" height="14"/>
<rect x="96.6" y="61.6" class="st1" width="14" height="14"/>
<rect x="158" y="61.6" class="st2" width="14" height="14"/>
<rect x="226.2" y="61.6" class="st3" width="14" height="14"/>
<rect x="294.4" y="61.6" class="st4" width="14" height="14"/>
<text transform="matrix(1 0 0 1 27.8569 564.797)" class="st11 st7 st8">In millions of coins</text>
<text transform="matrix(1 0 0 1 27.8569 582.797)" class="st12 st7 st8">Source:</text>
<text transform="matrix(1 0 0 1 80.3242 582.797)" class="st12 st7 st8">US Mint</text>
<g>
	<g>
		<line class="st13" x1="430.7" y1="146.5" x2="549.4" y2="201.9"/>
		<g>
			<polygon points="546.9,204.8 554.3,204.2 550,198.1 			"/>
		</g>
	</g>
</g>
<text transform="matrix(1 0 0 1 395.0442 98.6383)" class="st14"><tspan x="0" y="0" class="st11 st7 st8">Production is declining again after </tspan><tspan x="0" y="16.8" class="st11 st7 st8">an uptick during the pandemic</tspan></text>
</svg>
